<mxfile host="app.diagrams.net" modified="2022-05-26T14:33:38.425Z" agent="5.0 (Windows)" etag="Zq6JPJJL06bIF0kOBiIP" version="18.1.2" type="github">
  <diagram id="W3fD8ybXAZ133hCvVWz9" name="Page-1">
    <mxGraphModel dx="1550" dy="864" grid="1" gridSize="11" guides="1" tooltips="1" connect="1" arrows="1" fold="1" page="1" pageScale="1" pageWidth="1169" pageHeight="827" math="0" shadow="0">
      <root>
        <mxCell id="0" />
        <mxCell id="1" parent="0" />
        <mxCell id="WP4r95nc9R-CKZsR27Ys-1" value="&lt;div style=&quot;&quot;&gt;&lt;font style=&quot;font-size: 19px;&quot;&gt;Service&lt;/font&gt;&lt;/div&gt;" style="whiteSpace=wrap;html=1;fillColor=#F694C1;strokeColor=#AF45ED;fontColor=#095C86;rounded=1;fontStyle=1;fontFamily=Times New Roman;fontSize=19;" vertex="1" parent="1">
          <mxGeometry x="319" y="231" width="120" height="49" as="geometry" />
        </mxCell>
        <mxCell id="WP4r95nc9R-CKZsR27Ys-3" value="&lt;h3&gt;&lt;font face=&quot;Times New Roman&quot;&gt;Controller&lt;/font&gt;&lt;/h3&gt;" style="whiteSpace=wrap;html=1;fillColor=#dae8fc;strokeColor=#6c8ebf;rounded=1;" vertex="1" parent="1">
          <mxGeometry x="319" y="77" width="120" height="55" as="geometry" />
        </mxCell>
        <mxCell id="WP4r95nc9R-CKZsR27Ys-4" value="" style="endArrow=classic;html=1;rounded=0;fontFamily=Times New Roman;fontSize=19;" edge="1" parent="1" source="WP4r95nc9R-CKZsR27Ys-3" target="WP4r95nc9R-CKZsR27Ys-1">
          <mxGeometry width="50" height="50" relative="1" as="geometry">
            <mxPoint x="451" y="468" as="sourcePoint" />
            <mxPoint x="501" y="418" as="targetPoint" />
          </mxGeometry>
        </mxCell>
        <mxCell id="WP4r95nc9R-CKZsR27Ys-19" value="" style="html=1;shadow=0;dashed=0;align=center;verticalAlign=middle;shape=mxgraph.arrows2.arrow;dy=0.6;dx=40;notch=0;rounded=1;fontFamily=Times New Roman;fontSize=19;" vertex="1" parent="1">
          <mxGeometry x="451" y="91.5" width="100" height="26" as="geometry" />
        </mxCell>
      </root>
    </mxGraphModel>
  </diagram>
</mxfile>
